<?xml version="1.0" encoding="UTF-8"?>
<svg version="1.1" xmlns="http://www.w3.org/2000/svg" width="1024" height="1024">
<path d="M0 0 C337.92 0 675.84 0 1024 0 C1024 337.92 1024 675.84 1024 1024 C686.08 1024 348.16 1024 0 1024 C0 686.08 0 348.16 0 0 Z " fill="#142138" transform="translate(0,0)"/>
<path d="M0 0 C2.875 0.875 2.875 0.875 4.875 2.875 C5.12896729 4.93486023 5.12896729 4.93486023 5.13378906 7.51049805 C5.14009338 8.47718918 5.14639771 9.44388031 5.15289307 10.43986511 C5.1488446 11.49482681 5.14479614 12.54978851 5.140625 13.63671875 C5.14253845 14.7335347 5.1444519 15.83035065 5.14642334 16.96040344 C5.14778857 19.30002062 5.14406875 21.63964529 5.13574219 23.97924805 C5.12526146 27.47528374 5.1355123 30.97077964 5.1484375 34.46679688 C5.15573288 45.55636624 4.91584496 56.56827621 3.96875 67.62109375 C3.88917053 68.5508049 3.80959106 69.48051605 3.7276001 70.43840027 C2.40940201 84.22183887 -1.96491156 95.60564575 -12.140625 105.30859375 C-23.18779897 114.02890234 -36.60184964 115.21054963 -50.125 113.875 C-61.55386872 111.44030821 -69.85682348 104.77609551 -76.5625 95.375 C-82.8885266 85.15328471 -83.88360833 74.60318371 -82.125 62.875 C-79.3127913 52.3988892 -73.10899092 43.8804533 -64 37.9375 C-53.42392833 31.98714556 -42.00471456 29.92280145 -30.015625 32.55859375 C-21.25521171 35.54059884 -14.58013558 40.3500612 -8.125 46.875 C-8.1156543 45.59334961 -8.10630859 44.31169922 -8.09667969 42.99121094 C-8.05679939 38.23483558 -7.99104585 33.47910838 -7.91748047 28.72314453 C-7.88925951 26.66496102 -7.86805059 24.6066689 -7.85400391 22.54833984 C-7.8325901 19.58895215 -7.78594779 16.6308718 -7.734375 13.671875 C-7.73314636 12.75194763 -7.73191772 11.83202026 -7.73065186 10.88421631 C-7.58503756 4.52909686 -7.58503756 4.52909686 -5.28222656 1.25488281 C-3.125 -0.125 -3.125 -0.125 0 0 Z " fill="#141F36" transform="translate(539.125,439.125)"/>
<path d="M0 0 C1.0209375 0.01546875 1.0209375 0.01546875 2.0625 0.03125 C2.743125 0.0209375 3.42375 0.010625 4.125 0 C6.0625 0.53125 6.0625 0.53125 7.6652832 1.97949219 C9.79320782 5.86575255 9.43249086 9.53220063 9.35546875 13.890625 C9.35122391 14.79500305 9.34697906 15.6993811 9.34260559 16.63116455 C9.32583574 19.51483139 9.28818669 22.397795 9.25 25.28125 C9.23495097 27.23827114 9.22126295 29.19530326 9.20898438 31.15234375 C9.17593774 35.94558275 9.12416705 40.73829721 9.0625 45.53125 C9.7227417 44.98202881 10.3829834 44.43280762 11.06323242 43.86694336 C11.94342041 43.14643799 12.8236084 42.42593262 13.73046875 41.68359375 C14.59696045 40.96937256 15.46345215 40.25515137 16.35620117 39.51928711 C25.50337541 32.79980674 36.04203217 31.83684479 47.0625 32.53125 C58.50544061 34.44652233 67.39427252 41.22472382 74.0625 50.53125 C80.86289823 61.12798704 80.87738172 75.07408546 78.29296875 87.1171875 C74.56825885 97.95000912 67.23523646 106.2798797 57.0625 111.53125 C50.22324799 114.16262323 43.85931659 115.05310626 36.5625 114.96875 C35.18058472 114.95739014 35.18058472 114.95739014 33.77075195 114.94580078 C27.19563769 114.78593022 21.72686158 114.09646582 16.0625 110.53125 C15.01449219 109.89509766 15.01449219 109.89509766 13.9453125 109.24609375 C4.59556823 102.91296509 -0.45482997 94.40395391 -2.9375 83.53125 C-5.34148016 67.44880141 -5.27800783 51.26629541 -5.24969482 35.04095459 C-5.25010684 32.32768853 -5.26911938 29.61466043 -5.2875185 26.90146637 C-5.30574096 23.64264779 -5.3020742 20.38386038 -5.30078125 17.125 C-5.309991 15.91783325 -5.31920074 14.7106665 -5.32868958 13.46691895 C-5.32246078 12.35055054 -5.31623199 11.23418213 -5.30981445 10.08398438 C-5.31044388 9.10506226 -5.3110733 8.12614014 -5.3117218 7.11755371 C-4.80313217 3.60261353 -3.57637311 0.98061843 0 0 Z " fill="#0070C6" transform="translate(566.9375,438.46875)"/>
<path d="M0 0 C1.24112549 0.01244751 1.24112549 0.01244751 2.50732422 0.02514648 C13.70353192 0.33184705 22.59178506 3.55974661 30.6875 11.4375 C39.97778676 21.35451245 42.81724981 31.93570077 42.92578125 45.19140625 C42.933853 46.12927475 42.94192474 47.06714325 42.95024109 48.03343201 C42.96403669 50.01112033 42.97477895 51.98883202 42.98266602 53.96655273 C42.99423264 55.99071212 43.01475745 58.01483991 43.04418945 60.03881836 C43.08672719 62.96489159 43.10301117 65.89006283 43.11328125 68.81640625 C43.13078934 69.72064835 43.14829742 70.62489044 43.16633606 71.55653381 C43.14471618 77.79701379 43.14471618 77.79701379 40.82495117 81.04663086 C38.6875 82.4375 38.6875 82.4375 36.0625 82.3125 C33.6875 81.4375 33.6875 81.4375 31.6875 79.4375 C31.2734375 76.6171875 31.2734375 76.6171875 31.0625 73.3125 C30.95035156 71.66894531 30.95035156 71.66894531 30.8359375 69.9921875 C30.78695312 69.14914062 30.73796875 68.30609375 30.6875 67.4375 C30.22601563 67.95699219 29.76453125 68.47648438 29.2890625 69.01171875 C20.89157018 77.99006528 11.21207501 82.31633444 -1 82.8125 C-12.86118029 82.57257726 -22.07062644 78.52993644 -30.43359375 70.3671875 C-40.1499399 60.13382477 -41.901535 49.90377215 -41.64453125 36.28515625 C-41.11350209 24.99368434 -35.46796206 16.91334022 -27.3125 9.4375 C-19.10424701 2.74352817 -10.54910761 -0.13774796 0 0 Z " fill="#141F36" transform="translate(276.3125,471.5625)"/>
<path d="M0 0 C3.92498174 3.23307791 6.74710586 6.71016991 9.4375 11.0078125 C9.94410156 11.74902344 10.45070313 12.49023438 10.97265625 13.25390625 C16.66072141 23.15652666 15.81748888 36.62893078 13.7734375 47.55859375 C10.6956157 57.01955034 4.02182308 65.03315177 -4.5625 70.0078125 C-15.9847639 75.66455272 -28.10123252 76.09941012 -40.359375 73.08984375 C-47.35476071 70.72676833 -52.65574793 66.45975924 -57.5625 61.0078125 C-58.408125 60.1415625 -59.25375 59.2753125 -60.125 58.3828125 C-66.90128865 50.15293512 -68.29226986 38.26513324 -67.5625 28.0078125 C-65.6505544 16.35790671 -59.79605623 6.3847996 -50.5625 -0.9921875 C-35.08791089 -10.9618818 -15.10328942 -10.49327375 0 0 Z " fill="#0070C6" transform="translate(722.5625,478.9921875)"/>
<path d="M0 0 C9.13249361 6.35454879 15.39538206 14.75950746 17.8046875 25.6796875 C18.97681229 38.97562443 18.37356197 52.19124095 9.4921875 62.87109375 C2.03582405 70.86252031 -6.31876348 76.10220013 -17.4453125 76.91796875 C-30.30957367 77.17257392 -41.50801177 74.69542492 -51.1953125 65.6796875 C-59.52296465 55.68970171 -62.95386299 43.8440777 -62.51171875 30.96484375 C-61.35635635 18.96904403 -55.78999372 9.08011774 -46.5703125 1.37109375 C-33.2719004 -8.0996504 -13.83645232 -8.32156741 0 0 Z " fill="#0071C6" transform="translate(808.1953125,477.3203125)"/>
<path d="M0 0 C2.875 0.875 2.875 0.875 4.875 2.875 C5.12896729 4.93486023 5.12896729 4.93486023 5.13378906 7.51049805 C5.14009338 8.47718918 5.14639771 9.44388031 5.15289307 10.43986511 C5.1488446 11.49482681 5.14479614 12.54978851 5.140625 13.63671875 C5.14253845 14.7335347 5.1444519 15.83035065 5.14642334 16.96040344 C5.14778857 19.30002062 5.14406875 21.63964529 5.13574219 23.97924805 C5.12526146 27.47528374 5.1355123 30.97077964 5.1484375 34.46679688 C5.15573288 45.55636624 4.91584496 56.56827621 3.96875 67.62109375 C3.88917053 68.5508049 3.80959106 69.48051605 3.7276001 70.43840027 C2.40940201 84.22183887 -1.96491156 95.60564575 -12.140625 105.30859375 C-23.18779897 114.02890234 -36.60184964 115.21054963 -50.125 113.875 C-61.55386872 111.44030821 -69.85682348 104.77609551 -76.5625 95.375 C-82.8885266 85.15328471 -83.88360833 74.60318371 -82.125 62.875 C-79.3127913 52.3988892 -73.10899092 43.8804533 -64 37.9375 C-53.42392833 31.98714556 -42.00471456 29.92280145 -30.015625 32.55859375 C-21.25521171 35.54059884 -14.58013558 40.3500612 -8.125 46.875 C-8.1156543 45.59334961 -8.10630859 44.31169922 -8.09667969 42.99121094 C-8.05679939 38.23483558 -7.99104585 33.47910838 -7.91748047 28.72314453 C-7.88925951 26.66496102 -7.86805059 24.6066689 -7.85400391 22.54833984 C-7.8325901 19.58895215 -7.78594779 16.6308718 -7.734375 13.671875 C-7.73314636 12.75194763 -7.73191772 11.83202026 -7.73065186 10.88421631 C-7.58503756 4.52909686 -7.58503756 4.52909686 -5.28222656 1.25488281 C-3.125 -0.125 -3.125 -0.125 0 0 Z M-64.125 50.875 C-70.83008925 60.71964868 -72.16550241 69.15827874 -71.125 80.875 C-69.15620735 89.45636795 -64.68382205 95.43943943 -57.25 100.125 C-49.22040409 104.64904961 -41.37165697 106.40621396 -32.3203125 104.1875 C-23.72381877 101.32993976 -16.70700034 97.17374722 -12.15625 89.1484375 C-8.26828584 80.57724379 -6.78898266 72.46922234 -9.75 63.4375 C-13.31275739 54.37543417 -18.44904449 48.41541672 -27.125 43.875 C-39.66811706 38.81617378 -54.67321967 40.99359329 -64.125 50.875 Z " fill="#F9F9FA" transform="translate(539.125,439.125)"/>
<path d="M0 0 C1.24112549 0.01244751 1.24112549 0.01244751 2.50732422 0.02514648 C13.70353192 0.33184705 22.59178506 3.55974661 30.6875 11.4375 C39.97778676 21.35451245 42.81724981 31.93570077 42.92578125 45.19140625 C42.933853 46.12927475 42.94192474 47.06714325 42.95024109 48.03343201 C42.96403669 50.01112033 42.97477895 51.98883202 42.98266602 53.96655273 C42.99423264 55.99071212 43.01475745 58.01483991 43.04418945 60.03881836 C43.08672719 62.96489159 43.10301117 65.89006283 43.11328125 68.81640625 C43.13078934 69.72064835 43.14829742 70.62489044 43.16633606 71.55653381 C43.14471618 77.79701379 43.14471618 77.79701379 40.82495117 81.04663086 C38.6875 82.4375 38.6875 82.4375 36.0625 82.3125 C33.6875 81.4375 33.6875 81.4375 31.6875 79.4375 C31.2734375 76.6171875 31.2734375 76.6171875 31.0625 73.3125 C30.95035156 71.66894531 30.95035156 71.66894531 30.8359375 69.9921875 C30.78695312 69.14914062 30.73796875 68.30609375 30.6875 67.4375 C30.22601563 67.95699219 29.76453125 68.47648438 29.2890625 69.01171875 C20.89157018 77.99006528 11.21207501 82.31633444 -1 82.8125 C-12.86118029 82.57257726 -22.07062644 78.52993644 -30.43359375 70.3671875 C-40.1499399 60.13382477 -41.901535 49.90377215 -41.64453125 36.28515625 C-41.11350209 24.99368434 -35.46796206 16.91334022 -27.3125 9.4375 C-19.10424701 2.74352817 -10.54910761 -0.13774796 0 0 Z M-25.3125 21.4375 C-30.41689693 29.55093283 -32.19174418 36.90203492 -31.3125 46.4375 C-29.19129269 55.38293425 -25.11224876 63.19205425 -17.3125 68.3125 C-9.0922761 73.21038341 0.24131031 73.85011854 9.50390625 71.8203125 C17.42484877 69.01885239 24.32695432 63.66556225 28.1875 56.125 C31.65796982 47.59342836 32.2886511 37.2533403 29.81640625 28.2734375 C25.85617218 19.8855319 19.4306188 13.62616686 10.6875 10.4375 C-3.41361975 6.9987654 -15.76399839 10.40116481 -25.3125 21.4375 Z " fill="#F9F9F9" transform="translate(276.3125,471.5625)"/>
<path d="M0 0 C2.34800136 2.34800136 2.2602854 2.80884017 2.31884766 5.99072266 C2.33871735 6.81142242 2.35858704 7.63212219 2.37905884 8.47769165 C2.39061005 9.36419403 2.40216125 10.25069641 2.4140625 11.1640625 C2.43342865 12.07127045 2.4527948 12.97847839 2.4727478 13.91317749 C2.53263216 16.81702204 2.57896416 19.72090604 2.625 22.625 C2.66317165 24.59116333 2.70222289 26.5573098 2.7421875 28.5234375 C2.83834091 33.3488217 2.922339 38.17428418 3 43 C3.88425659 42.28444946 3.88425659 42.28444946 4.78637695 41.55444336 C15.0097088 33.41609878 23.82481949 30.7452209 37 32 C46.13051947 33.63719659 53.84751921 37.76789177 59.68359375 45.03515625 C63.80436012 51.18573632 66.11366441 57.7169565 66.14526367 65.10400391 C66.15164352 66.11830475 66.15802338 67.13260559 66.16459656 68.17764282 C66.16570938 69.26628632 66.1668222 70.35492981 66.16796875 71.4765625 C66.17296135 73.15895523 66.17296135 73.15895523 66.17805481 74.87533569 C66.18311441 77.24403473 66.18546343 79.61274088 66.18530273 81.98144531 C66.18749575 85.61795641 66.20567973 89.25416732 66.22460938 92.890625 C66.2275421 95.19010313 66.2295277 97.4895827 66.23046875 99.7890625 C66.23765427 100.88175446 66.24483978 101.97444641 66.25224304 103.10025024 C66.24916641 104.10824677 66.24608978 105.11624329 66.24291992 106.15478516 C66.24434494 107.04428864 66.24576996 107.93379211 66.24723816 108.85025024 C66 111 66 111 64 113 C58.75219003 113.55827766 58.75219003 113.55827766 56.3326416 111.76248169 C54.63947277 109.52318565 54.62238887 108.27773144 54.61523438 105.48779297 C54.60512329 104.57609344 54.59501221 103.66439392 54.58459473 102.72506714 C54.58761597 101.74071686 54.59063721 100.75636658 54.59375 99.7421875 C54.58291382 98.72456329 54.57207764 97.70693909 54.56091309 96.65847778 C54.52659132 93.39725451 54.51105716 90.13638021 54.5 86.875 C54.48536816 82.60122971 54.45150161 78.32823127 54.40625 74.0546875 C54.40927124 73.0824826 54.41229248 72.11027771 54.41540527 71.10861206 C54.331864 63.41956961 53.2425926 55.23045854 47.7578125 49.3515625 C41.05471897 44.19762837 33.16609522 42.18556611 24.82421875 42.578125 C17.80734123 43.62628928 11.89642841 46.87583073 7 52 C2.94710808 58.65767152 2.43451706 64.84674952 2.49609375 72.4921875 C2.48667252 73.55994415 2.47725128 74.62770081 2.46754456 75.72781372 C2.43904954 79.11040838 2.4358125 82.49229535 2.4375 85.875 C2.43389506 89.27902334 2.4244406 92.68253971 2.39674377 96.0864563 C2.37991735 98.19761693 2.37710925 100.30894569 2.38975525 102.4201355 C2.38287186 103.37187653 2.37598846 104.32361755 2.36889648 105.30419922 C2.36985825 106.14087128 2.37082001 106.97754333 2.37181091 107.83956909 C1.91296013 110.5057507 1.13957135 111.38869986 -1 113 C-3.5 113.375 -3.5 113.375 -6 113 C-8.05603245 111.42782651 -8.89986398 110.5389297 -9.37752342 107.9681778 C-9.37922004 106.79458836 -9.37922004 106.79458836 -9.38095093 105.59729004 C-9.3894104 104.69718704 -9.39786987 103.79708405 -9.40658569 102.8697052 C-9.39747665 101.39216011 -9.39747665 101.39216011 -9.38818359 99.88476562 C-9.39344055 98.84551437 -9.39869751 97.80626312 -9.40411377 96.73551941 C-9.41734267 93.29227777 -9.40856522 89.84949654 -9.3984375 86.40625 C-9.4004574 84.01875723 -9.40336813 81.63126506 -9.40713501 79.24377441 C-9.41156229 74.23683811 -9.40511416 69.23006221 -9.39111328 64.22314453 C-9.37402137 57.79668663 -9.38386036 51.37060457 -9.40183067 44.94416046 C-9.41265749 40.01317499 -9.4092272 35.08227902 -9.4014473 30.15129089 C-9.39944225 27.78134619 -9.4019152 25.41139343 -9.40888596 23.04145813 C-9.41648213 19.73249709 -9.40492144 16.42414958 -9.38818359 13.11523438 C-9.39425629 12.13020432 -9.40032898 11.14517426 -9.40658569 10.1302948 C-9.39812622 9.2301918 -9.38966675 8.33008881 -9.38095093 7.40270996 C-9.37981985 6.620317 -9.37868877 5.83792404 -9.37752342 5.0318222 C-8.39888145 -0.23520595 -4.71741629 -0.5018528 0 0 Z " fill="#FCFCFC" transform="translate(146,440)"/>
<path d="M0 0 C6.07793223 4.07529557 9.07178951 8.69148209 10.6484375 15.83984375 C12.0143988 24.23291706 11.03465493 32.95910098 6.59375 40.3359375 C2.37416436 45.69003437 -2.32261863 48.64418652 -9 50 C-16.58624061 50.83710241 -25.7735898 51.65107246 -32.4296875 47.3828125 C-39.14235183 41.47166033 -42.29209913 34.31211605 -43.28125 25.4921875 C-43.56693317 17.89777652 -41.95919947 11.14659308 -37.9375 4.6875 C-27.90016639 -4.49559245 -12.1928806 -6.67157618 0 0 Z " fill="#152036" transform="translate(621,489)"/>
<path d="M0 0 C6.2480237 3.69484458 10.71986035 8.68495606 12.96484375 15.6484375 C15.07941295 25.8892437 12.88476084 34.83850006 7.8125 43.8125 C0.10956328 50.70460127 -7.62687185 51.84471435 -17.625 51.34765625 C-24.77593942 50.60276673 -28.44334925 48.34434438 -33.375 43.25 C-38.63042437 36.74671231 -40.1692581 29.99319462 -39.9140625 21.7109375 C-38.99421867 14.45439174 -35.91485272 7.94078624 -30.5625 2.9375 C-21.68816391 -3.54626881 -10.03326793 -4.55507337 0 0 Z " fill="#152036" transform="translate(709.5625,488.0625)"/>
<path d="M0 0 C6.23332197 5.2003044 9.45575454 11.43465128 10.2421875 19.4765625 C10.47411272 27.80010105 9.40636686 35.42468895 4 42 C-1.75231275 47.83628812 -6.55564868 50.04054526 -14.8125 50.375 C-22.94095535 50.21404049 -29.55404618 47.37596591 -35.4921875 41.796875 C-41.31243795 34.86082524 -41.77507462 26.41413567 -41.37109375 17.7109375 C-40.52987215 9.29872146 -36.70055761 4.95290143 -30.28515625 -0.3671875 C-21.58735305 -6.58202808 -8.84137491 -5.34699846 0 0 Z " fill="#152036" transform="translate(802,490)"/>
<path d="M0 0 C8.76378532 6.17260962 13.56745116 13.50858465 16.82421875 23.7109375 C17.43557781 27.82154404 17.46019853 31.81919081 17.3828125 35.96875 C17.37931541 37.63416336 17.37931541 37.63416336 17.37574768 39.33322144 C17.36608523 41.65419314 17.34447457 43.97514401 17.3112793 46.29589844 C17.26135836 49.86167937 17.24976154 53.42608663 17.24414062 56.9921875 C17.23007252 59.25522314 17.21387461 61.51824676 17.1953125 63.78125 C17.18726845 65.38264328 17.18726845 65.38264328 17.17906189 67.01638794 C17.16307449 67.99856293 17.1470871 68.98073792 17.13061523 69.99267578 C17.11465553 71.29073654 17.11465553 71.29073654 17.09837341 72.61502075 C16.82421875 74.7109375 16.82421875 74.7109375 14.82421875 76.7109375 C9.57627296 77.26922961 9.57627296 77.26922961 7.15586853 75.47242737 C5.46435256 73.23491096 5.45196374 72.00169751 5.45532227 69.21459961 C5.44843887 68.30612778 5.44155548 67.39765594 5.4344635 66.46165466 C5.4406218 65.48044144 5.44678009 64.49922821 5.453125 63.48828125 C5.43572838 61.40169119 5.41814417 59.31510268 5.40039062 57.22851562 C5.39035838 53.94601382 5.38671081 50.66361994 5.38842773 47.38110352 C5.38483112 44.20817315 5.35737451 41.03606403 5.328125 37.86328125 C5.33630753 36.89623764 5.34449005 35.92919403 5.35292053 34.93284607 C5.26725126 26.98924589 3.5572518 20.10876238 -1.48828125 13.8359375 C-10.04260695 7.07205207 -18.38040004 5.60757682 -29.17578125 6.7109375 C-35.73915177 8.76586592 -40.45092967 11.9543487 -44.17578125 17.7109375 C-47.20954999 24.31316574 -47.61637208 29.92911525 -47.6171875 37.140625 C-47.63039536 38.21216827 -47.64360321 39.28371155 -47.6572113 40.38772583 C-47.69789735 43.78715709 -47.719737 47.18631865 -47.73828125 50.5859375 C-47.76205127 54.00689937 -47.79007813 57.42760683 -47.83006287 60.84841919 C-47.85447014 62.9717621 -47.86928773 65.09524082 -47.87367249 67.21871948 C-47.8838591 68.17376373 -47.89404572 69.12880798 -47.90454102 70.11279297 C-47.90881607 70.95470184 -47.91309113 71.79661072 -47.91749573 72.66403198 C-48.17578125 74.7109375 -48.17578125 74.7109375 -50.17578125 76.7109375 C-55.32719959 77.25896073 -55.32719959 77.25896073 -57.84292603 75.63427734 C-59.88220534 72.69155177 -59.55744448 70.17339686 -59.56396484 66.625 C-59.5692218 65.90761658 -59.57447876 65.19023315 -59.57989502 64.45111084 C-59.5931017 62.07916508 -59.58435501 59.70789012 -59.57421875 57.3359375 C-59.5762393 55.68831249 -59.57915059 54.04068835 -59.58291626 52.39306641 C-59.5873405 48.93969204 -59.58090546 45.48655044 -59.56689453 42.03320312 C-59.54980243 37.6043139 -59.5596431 33.17597004 -59.57761192 28.74710083 C-59.58844715 25.34476606 -59.58500466 21.94256081 -59.57722855 18.54022217 C-59.57522581 16.90712418 -59.57768841 15.27401448 -59.58466721 13.64093018 C-59.59227759 11.35926112 -59.58068434 9.07847798 -59.56396484 6.796875 C-59.56157806 5.4979834 -59.55919128 4.1990918 -59.55673218 2.86083984 C-59.17578125 -0.2890625 -59.17578125 -0.2890625 -57.84292603 -2.21240234 C-55.26522708 -3.87710824 -53.15879283 -3.60640416 -50.17578125 -3.2890625 C-48.17578125 -1.2890625 -48.17578125 -1.2890625 -47.98046875 0.875 C-48.00367188 1.68710937 -48.026875 2.49921875 -48.05078125 3.3359375 C-48.06882812 4.15320313 -48.086875 4.97046875 -48.10546875 5.8125 C-48.14027344 6.75222656 -48.14027344 6.75222656 -48.17578125 7.7109375 C-47.51578125 7.7109375 -46.85578125 7.7109375 -46.17578125 7.7109375 C-45.94246094 7.11539062 -45.70914062 6.51984375 -45.46875 5.90625 C-43.85320593 3.16324165 -42.22489802 2.18683736 -39.48828125 0.5859375 C-38.65941406 0.08835937 -37.83054687 -0.40921875 -36.9765625 -0.921875 C-25.7985782 -6.37835269 -10.82752647 -6.41487206 0 0 Z " fill="#FCFCFC" transform="translate(409.17578125,476.2890625)"/>
<path d="M0 0 C0.66 -0.01289063 1.32 -0.02578125 2 -0.0390625 C5.22783733 1.03268036 6.2099487 2.76390901 8 5.625 C8.54068119 8.71245 8.46663468 11.73696619 8.390625 14.86328125 C8.38496521 15.74404831 8.37930542 16.62481537 8.37347412 17.53227234 C8.3511533 20.33457693 8.30096577 23.13558446 8.25 25.9375 C8.22992941 27.84177836 8.21167961 29.74607684 8.1953125 31.65039062 C8.15130267 36.30909053 8.08230549 40.96682565 8 45.625 C8.94568848 45.13169189 9.89137695 44.63838379 10.86572266 44.13012695 C14 42.625 14 42.625 16.1484375 42.54296875 C19.13932762 44.2908096 20.08709752 46.8921821 21.625 49.9375 C22.21539063 51.08863281 22.80578125 52.23976563 23.4140625 53.42578125 C24.19910156 55.00939453 24.19910156 55.00939453 25 56.625 C25.39960937 57.42292969 25.79921875 58.22085938 26.2109375 59.04296875 C26.47132813 59.56503906 26.73171875 60.08710938 27 60.625 C25.41728767 61.89660666 23.83380365 63.16725285 22.25 64.4375 C21.36828125 65.14519531 20.4865625 65.85289062 19.578125 66.58203125 C17.41007071 68.30005002 15.22271099 69.97873976 13 71.625 C5.38720749 68.14775996 -1.08831234 61.30182541 -6 54.625 C-6 53.965 -6 53.305 -6 52.625 C-6.66 52.625 -7.32 52.625 -8 52.625 C-8.10150385 46.02316433 -8.17150894 39.42153024 -8.21972656 32.8190918 C-8.2398294 30.57357259 -8.26711605 28.32810565 -8.30175781 26.08276367 C-8.3503331 22.8532216 -8.37298237 19.62437225 -8.390625 16.39453125 C-8.41127014 15.39227005 -8.43191528 14.39000885 -8.45318604 13.3573761 C-8.45461313 8.91443003 -8.44453706 6.35791476 -6.10058594 2.4934082 C-3.84844567 0.49019697 -2.97164695 -0.05803998 0 0 Z " fill="#0070C5" transform="translate(843,437.375)"/>
<path d="M0 0 C3.18198897 0.51707321 4.75886832 2.27378446 7.1875 4.35546875 C9.02511763 5.04698603 10.88197455 5.68838984 12.75 6.29296875 C18.15429066 8.13319155 20.62160283 10.22367442 23.1875 15.35546875 C23.73461777 21.81145846 22.95332888 25.06295248 19.1875 30.35546875 C15.08881085 34.24396872 11.48264432 36.09564109 5.875 36.73046875 C-0.4285269 36.08943212 -4.92118495 33.66199695 -9.1875 28.98046875 C-13.36930888 23.60548071 -14.26777302 18.46174236 -14.13671875 11.7578125 C-13.65518644 8.18983215 -12.11849576 6.05677807 -9.8125 3.35546875 C-9.13767578 2.54722656 -9.13767578 2.54722656 -8.44921875 1.72265625 C-5.79328792 -0.49590172 -3.33432034 -0.1122127 0 0 Z " fill="#FCB700" transform="translate(495.8125,493.64453125)"/>
<path d="M0 0 C3.36923059 2.58068726 5.37536977 5.11656369 7 9 C7.91692059 16.10911159 6.89464587 22.02695664 2.60546875 27.9140625 C-0.85757831 32.17492546 -3.3752368 34.70835964 -9.0234375 35.3359375 C-20.29126214 35.46726413 -20.29126214 35.46726413 -25 31 C-29.2037885 26.22813198 -30.32328404 23.49827011 -30.203125 17.25 C-29.90947102 13.99721747 -29.21344385 12.42095421 -27 10 C-25.09092616 8.84767615 -23.15859011 7.89591944 -21.12890625 6.97265625 C-4.24926394 -0.73932712 -4.24926394 -0.73932712 0 0 Z " fill="#FBB800" transform="translate(286,495)"/>
<path d="M0 0 C4.54470757 4.0927023 7.3891121 8.60349551 10.4375 13.875 C11.48027218 15.65582631 12.52461129 17.43573579 13.5703125 19.21484375 C14.11977539 20.15054199 14.66923828 21.08624023 15.23535156 22.05029297 C17.08861688 25.148128 19.00032273 28.20293869 20.9296875 31.25390625 C21.57623291 32.28467285 22.22277832 33.31543945 22.88891602 34.37744141 C24.15441125 36.39060517 25.43068301 38.39704165 26.71850586 40.39599609 C27.57907593 41.77585693 27.57907593 41.77585693 28.45703125 43.18359375 C28.97241455 43.99368896 29.48779785 44.80378418 30.01879883 45.63842773 C31.235865 48.56768405 31.00361892 50.02477468 30 53 C28 55 28 55 25.17578125 55.42578125 C20.95868015 54.86038885 19.9029382 53.40729819 17.1875 50.1875 C16.76009521 49.68976074 16.33269043 49.19202148 15.89233398 48.67919922 C14.57528439 47.13473663 13.28522469 45.57099584 12 44 C10.88238281 42.65228516 10.88238281 42.65228516 9.7421875 41.27734375 C8.27248289 39.48893976 6.81170738 37.69316519 5.359375 35.890625 C3.66356056 33.81297155 1.95267868 31.76557579 0.203125 29.734375 C-4.96756541 23.7301246 -9.8479047 17.78000371 -14 11 C-12.41728767 9.72839334 -10.83380365 8.45774715 -9.25 7.1875 C-8.36828125 6.47980469 -7.4865625 5.77210938 -6.578125 5.04296875 C-4.41007071 3.32494998 -2.22271099 1.64626024 0 0 Z " fill="#FCB702" transform="translate(869,498)"/>
<path d="M0 0 C0.66 0 1.32 0 2 0 C3.51740976 1.69903023 4.965128 3.46072723 6.375 5.25 C9.42226858 9.23052544 9.42226858 9.23052544 13.11206055 12.55761719 C16.06694366 16.38027989 15.55291993 20.17444833 15.49609375 24.875 C15.49754898 25.83647949 15.49900421 26.79795898 15.50050354 27.78857422 C15.49884514 29.81936679 15.48729044 31.85017201 15.46655273 33.88085938 C15.43760409 36.98882448 15.44594398 40.09508314 15.45898438 43.203125 C15.45274664 45.17709162 15.44435543 47.15105286 15.43359375 49.125 C15.43652939 50.05425293 15.43946503 50.98350586 15.44248962 51.94091797 C15.34961582 58.29423847 15.34961582 58.29423847 13.71899414 61.5859375 C11.33363191 63.54816134 9.04479807 63.4848586 6.03515625 63.53125 C3.07592623 62.75878305 1.91809183 61.35443324 0 59 C-0.48101807 56.27911377 -0.48101807 56.27911377 -0.45410156 53.12988281 C-0.45379944 51.94896057 -0.45349731 50.76803833 -0.45318604 49.55133057 C-0.43254089 48.28142273 -0.41189575 47.01151489 -0.390625 45.703125 C-0.38496521 44.39921814 -0.37930542 43.09531128 -0.37347412 41.75189209 C-0.35823338 38.29267477 -0.31896662 34.83413394 -0.2746582 31.37518311 C-0.23367087 27.84266307 -0.21545582 24.31003326 -0.1953125 20.77734375 C-0.15246968 13.85128538 -0.08423815 6.9256752 0 0 Z " fill="#FA3821" transform="translate(835,490)"/>
<path d="M0 0 C2 3 2 3 2.109375 5.30078125 C0.3534567 9.57310358 -3.06979396 11.54828796 -6.75 14.1875 C-8.29579511 15.33042871 -9.84136537 16.47366159 -11.38671875 17.6171875 C-12.16063965 18.18276367 -12.93456055 18.74833984 -13.73193359 19.33105469 C-17.0496672 21.77239236 -20.30680672 24.28938393 -23.5625 26.8125 C-24.62604779 27.63184061 -25.68982263 28.45088665 -26.75390625 29.26953125 C-27.49511719 29.84058594 -28.23632812 30.41164063 -29 31 C-32.42409111 27.93320535 -34.27342685 24.88283477 -36.25 20.75 C-36.77078125 19.67234375 -37.2915625 18.5946875 -37.828125 17.484375 C-38.21484375 16.66453125 -38.6015625 15.8446875 -39 15 C-34.5791219 12.84626825 -30.15005708 10.7107693 -25.71264648 8.59130859 C-24.20606265 7.86865276 -22.70178275 7.14117227 -21.19995117 6.40869141 C-19.0337975 5.3532569 -16.85979788 4.3157719 -14.68359375 3.28125 C-14.01976181 2.95314331 -13.35592987 2.62503662 -12.67198181 2.2869873 C-8.29835291 0.23515545 -4.81717569 -0.60135226 0 0 Z " fill="#F99903" transform="translate(898,464)"/>
<path d="M0 0 C1.8515625 2.80078125 1.8515625 2.80078125 3.625 6.3125 C4.21539063 7.46363281 4.80578125 8.61476563 5.4140625 9.80078125 C5.93742188 10.85652344 6.46078125 11.91226562 7 13 C7.39960937 13.79792969 7.79921875 14.59585937 8.2109375 15.41796875 C8.47132813 15.94003906 8.73171875 16.46210938 9 17 C7.41728767 18.27160666 5.83380365 19.54225285 4.25 20.8125 C2.92742188 21.87404297 2.92742188 21.87404297 1.578125 22.95703125 C-0.58992929 24.67505002 -2.77728901 26.35373976 -5 28 C-9.54554279 26.45662966 -11.52829122 22.90833535 -14.125 19.125 C-14.56714844 18.49980469 -15.00929688 17.87460937 -15.46484375 17.23046875 C-17.56290423 14.23233399 -19.41136542 11.30446817 -21 8 C-18.26070622 6.45925893 -15.50712161 4.94607142 -12.75 3.4375 C-11.97269531 2.99986328 -11.19539062 2.56222656 -10.39453125 2.11132812 C-9.64042969 1.70205078 -8.88632812 1.29277344 -8.109375 0.87109375 C-7.07248535 0.29766235 -7.07248535 0.29766235 -6.01464844 -0.28735352 C-3.53864232 -1.16319717 -2.40213406 -1.02344666 0 0 Z " fill="#39B4E9" transform="translate(861,481)"/>
<path d="M0 0 C3.58905187 4.23625794 6.46375165 8.75345239 9.3125 13.5 C9.77978516 14.24636719 10.24707031 14.99273438 10.72851562 15.76171875 C14.020965 21.25723987 14.020965 21.25723987 13.91796875 24.90625 C13 27 13 27 11 29 C8.18359375 29.43359375 8.18359375 29.43359375 5 29 C2.47265625 26.91015625 2.47265625 26.91015625 0.0625 24.0625 C-0.78957031 23.06734375 -1.64164063 22.0721875 -2.51953125 21.046875 C-5.74826577 17.08087039 -8.94265899 13.10007652 -12 9 C-8.32442148 4.99027798 -4.81033104 2.54664585 0 0 Z " fill="#FA3621" transform="translate(886,524)"/>
<path d="M0 0 C2 3 2 3 2.0234375 5.35546875 C0.55521496 9.14931095 -2.18789116 10.99429045 -5.375 13.3125 C-5.96539063 13.76689453 -6.55578125 14.22128906 -7.1640625 14.68945312 C-11.58476269 18 -11.58476269 18 -15 18 C-15.67154933 16.71086513 -16.33708859 15.41859796 -17 14.125 C-17.37125 13.40570313 -17.7425 12.68640625 -18.125 11.9453125 C-19 10 -19 10 -19 8 C-19.99 7.67 -20.98 7.34 -22 7 C-19.65322019 5.81603901 -17.29938651 4.65311707 -14.9375 3.5 C-14.28072266 3.16613281 -13.62394531 2.83226562 -12.94726562 2.48828125 C-8.50992151 0.34611512 -5.03124725 -0.65324559 0 0 Z " fill="#F73722" transform="translate(898,464)"/>
<path d="M0 0 C6.74273412 5.6189451 6.74273412 5.6189451 9.8125 9.25 C10.39644531 9.93578125 10.98039063 10.6215625 11.58203125 11.328125 C12.04996094 11.87984375 12.51789062 12.4315625 13 13 C13.33 13.33 13.66 13.66 14 14 C14.04063832 15.66617115 14.042721 17.33388095 14 19 C9.09748502 19.980503 5.19057759 20 0 20 C0 13.4 0 6.8 0 0 Z " fill="#FB9C04" transform="translate(836,491)"/>
<path d="M0 0 C0.66 0 1.32 0 2 0 C2.33 14.85 2.66 29.7 3 45 C5.64 43.68 8.28 42.36 11 41 C11.66 41.33 12.32 41.66 13 42 C10.69 43.32 8.38 44.64 6 46 C9.10157953 51.83096952 12.85556181 56.86601899 17 62 C14 62 14 62 12.3515625 60.6796875 C2 49.85972851 2 49.85972851 2 47 C1.34 47 0.68 47 0 47 C0 31.49 0 15.98 0 0 Z " fill="#036ABA" transform="translate(835,443)"/>
<path d="M0 0 C2.00485579 3.87605453 3.12608227 6.99728666 3.11352539 11.37963867 C3.11341209 12.70066841 3.11341209 12.70066841 3.11329651 14.04838562 C3.10813522 14.99534805 3.10297394 15.94231049 3.09765625 16.91796875 C3.0962413 17.89034988 3.09482635 18.86273102 3.09336853 19.86457825 C3.08776817 22.97225004 3.07521562 26.07984996 3.0625 29.1875 C3.05748505 31.29361875 3.05292213 33.39973863 3.04882812 35.50585938 C3.03779862 40.67060064 3.02053375 45.83528813 3 51 C2.34 51 1.68 51 1 51 C0.67 51.99 0.34 52.98 0 54 C-0.66 53.67 -1.32 53.34 -2 53 C-1.505 52.505 -1.505 52.505 -1 52 C-0.87718048 50.37420782 -0.82217496 48.74322996 -0.79467773 47.11303711 C-0.77473251 46.07203354 -0.75478729 45.03102997 -0.73423767 43.95848083 C-0.71752518 42.8262056 -0.70081268 41.69393036 -0.68359375 40.52734375 C-0.66281265 39.37456436 -0.64203156 38.22178497 -0.62062073 37.03407288 C-0.55500036 33.33527843 -0.49618245 29.63641041 -0.4375 25.9375 C-0.39432665 23.43684121 -0.35071276 20.93618999 -0.30664062 18.43554688 C-0.19930632 12.29044338 -0.09756357 6.14526596 0 0 Z " fill="#272E3D" transform="translate(212,499)"/>
<path d="M0 0 C2 2 2 2 2.22705078 5.53173828 C2.22673363 7.04463331 2.21540633 8.55755088 2.1953125 10.0703125 C2.1924826 10.86654022 2.18965271 11.66276794 2.18673706 12.48312378 C2.1755264 15.03056763 2.15042062 17.57766211 2.125 20.125 C2.11497133 21.85025535 2.10584528 23.57551619 2.09765625 25.30078125 C2.07558422 29.53398914 2.04104867 33.7669353 2 38 C2.66 38.33 3.32 38.66 4 39 C2.68 40.32 1.36 41.64 0 43 C0 28.81 0 14.62 0 0 Z " fill="#040C21" transform="translate(148,442)"/>
<path d="M0 0 C0.33 1.32 0.66 2.64 1 4 C1.55429687 3.69964844 2.10859375 3.39929688 2.6796875 3.08984375 C3.40414062 2.70957031 4.12859375 2.32929688 4.875 1.9375 C5.59429688 1.55464844 6.31359375 1.17179687 7.0546875 0.77734375 C7.69664062 0.52082031 8.33859375 0.26429688 9 0 C9.66 0.33 10.32 0.66 11 1 C8.69 2.32 6.38 3.64 4 5 C7.10157953 10.83096952 10.85556181 15.86601899 15 21 C12 21 12 21 10.3515625 19.6796875 C8.55290539 17.79964319 6.76881959 15.90815768 5 14 C4.22462891 13.24783203 4.22462891 13.24783203 3.43359375 12.48046875 C0.63870028 9.59002337 -0.29871511 7.54680087 -0.3125 3.625 C-0.209375 2.42875 -0.10625 1.2325 0 0 Z " fill="#085DB9" transform="translate(837,484)"/>
<path d="M0 0 C0.33 0 0.66 0 1 0 C1.02727678 2.97923003 1.04697128 5.95820379 1.0625 8.9375 C1.07087891 9.76830078 1.07925781 10.59910156 1.08789062 11.45507812 C1.10966956 17.05226441 0.71159268 22.44733582 0 28 C1.32 27.67 2.64 27.34 4 27 C1.94766315 29.2477975 0.99332739 30.0022242 -2 31 C-2.04947698 27.06734104 -2.08575578 23.13480286 -2.10986328 19.2019043 C-2.12485495 17.20680382 -2.15026731 15.21179054 -2.17578125 13.21679688 C-2.18222656 11.96318359 -2.18867187 10.70957031 -2.1953125 9.41796875 C-2.20578613 8.26063232 -2.21625977 7.1032959 -2.22705078 5.91088867 C-2 3 -2 3 0 0 Z " fill="#122744" transform="translate(852,453)"/>
<path d="M0 0 C0.33 0 0.66 0 1 0 C1.66 13.2 2.32 26.4 3 40 C1.515 40.495 1.515 40.495 0 41 C0 27.47 0 13.94 0 0 Z " fill="#171826" transform="translate(576,443)"/>
<path d="M0 0 C4.54075781 4.14010271 7.71842138 8.82390176 11 14 C6.76417433 12.0082607 3.06823628 9.64046095 1.23828125 5.1171875 C0.75660798 3.42962298 0.37001195 1.71550993 0 0 Z " fill="#1057AF" transform="translate(841,492)"/>
<path d="M0 0 C2 2 2 2 2.25 5.375 C2.02515633 8.63523324 1.7239511 10.30632641 0 13 C-1.18306728 10.63386544 -1.13354608 9.13219264 -1.125 6.5 C-1.12757813 5.7059375 -1.13015625 4.911875 -1.1328125 4.09375 C-1 2 -1 2 0 0 Z " fill="#242A38" transform="translate(529,506)"/>
<path d="M0 0 C3.36720387 1.39332574 4.9859524 2.9789286 7 6 C4.3333581 7.33332095 2.83319697 6.67102033 0 6 C0 4.02 0 2.04 0 0 Z " fill="#252433" transform="translate(850,506)"/>
<path d="M0 0 C2.11411851 3.48207754 2.11411851 3.48207754 1.59375 5.84375 C1.3978125 6.5553125 1.201875 7.266875 1 8 C0.78807905 9.58025005 0.60076629 11.16398461 0.4375 12.75 C0.35371094 13.54921875 0.26992188 14.3484375 0.18359375 15.171875 C0.12300781 15.77515625 0.06242187 16.3784375 0 17 C-0.33 17 -0.66 17 -1 17 C-1.02699725 14.72923158 -1.04639453 12.45837179 -1.0625 10.1875 C-1.07990234 8.29064453 -1.07990234 8.29064453 -1.09765625 6.35546875 C-1 3 -1 3 0 0 Z " fill="#1B283D" transform="translate(455,501)"/>
<path d="M0 0 C0.33 0.99 0.66 1.98 1 3 C-0.9375 5.6875 -0.9375 5.6875 -3 8 C-3.66 6.68 -4.32 5.36 -5 4 C-3.35 2.68 -1.7 1.36 0 0 Z " fill="#F5B511" transform="translate(861,504)"/>
<path d="M0 0 C0.99 0.33 1.98 0.66 3 1 C3.1875 3.875 3.1875 3.875 3 7 C2.01 7.66 1.02 8.32 0 9 C0 6.03 0 3.06 0 0 Z " fill="#1D293E" transform="translate(412,502)"/>
<path d="M0 0 C0.66 0.33 1.32 0.66 2 1 C-0.31 3.64 -2.62 6.28 -5 9 C-5.66 8.67 -6.32 8.34 -7 8 C-4.69 5.36 -2.38 2.72 0 0 Z " fill="#007AD5" transform="translate(760,480)"/>
<path d="M0 0 C0 1.98 0 3.96 0 6 C-0.99 6.495 -0.99 6.495 -2 7 C-2.99 5.02 -3.98 3.04 -5 1 C-3 0 -3 0 0 0 Z " fill="#F4A112" transform="translate(864,478)"/>
<path d="M0 0 C2.72426311 2.35277269 3.8141763 4.62496331 5 8 C3.68 7.67 2.36 7.34 1 7 C0.67 4.69 0.34 2.38 0 0 Z " fill="#2CBBED" transform="translate(863,488)"/>
</svg>
